<svg xmlns="http://www.w3.org/2000/svg" viewBox="0 0 512 512" fill="none">
  <!-- clash mark — a whirl of three tapered blades around the white
       singularity: parallel claude sessions spinning around one
       orchestrator. Inlay set into the surface (inner top shadow,
       hairline of light on the lower edge). -->
  <defs>
    <radialGradient id="surface" cx="50%" cy="30%" r="90%">
      <stop offset="0%" stop-color="#1d2029"/>
      <stop offset="100%" stop-color="#12141b"/>
    </radialGradient>
    <filter id="deboss" x="-30%" y="-30%" width="160%" height="160%">
      <feOffset in="SourceAlpha" dx="0" dy="6" result="off"/>
      <feGaussianBlur in="off" stdDeviation="6" result="blur"/>
      <feComposite in="blur" in2="SourceAlpha" operator="arithmetic" k2="-1" k3="1" result="mask"/>
      <feFlood flood-color="#000000" flood-opacity="0.5"/>
      <feComposite in2="mask" operator="in" result="shadow"/>
      <feMerge><feMergeNode in="SourceGraphic"/><feMergeNode in="shadow"/></feMerge>
    </filter>
    <filter id="glint" x="-150%" y="-150%" width="400%" height="400%">
      <feGaussianBlur stdDeviation="5"/>
    </filter>
  </defs>
  <rect x="28" y="28" width="456" height="456" rx="103" fill="url(#surface)"/>
  <g transform="translate(256,260.48) scale(1.28)" fill="rgba(255,255,255,0.10)">
      <path d="M 111.0 0.0 L 109.5 8.8 L 107.4 17.3 L 104.6 25.5 L 101.2 33.5 L 97.2 41.0 L 92.7 48.1 L 87.7 54.8 L 82.2 61.0 L 76.3 66.6 L 70.0 71.8 L 63.4 76.3 L 56.5 80.3 L 49.4 83.7 L 42.2 86.4 L 34.8 88.6 L 27.3 90.1 L 19.8 91.1 L 12.4 91.4 L 5.0 91.2 L -2.3 90.4 L -9.4 89.0 L -16.3 87.1 L -22.9 84.7 L -29.3 81.8 L -35.4 78.5 L -41.2 74.7 L -46.6 70.6 L -51.7 66.2 L -51.7 66.2 L -46.0 69.6 L -39.9 72.4 L -33.7 74.7 L -27.4 76.4 L -21.0 77.5 L -14.6 78.1 L -8.2 78.1 L -1.9 77.6 L 4.2 76.6 L 10.2 75.1 L 15.9 73.1 L 21.4 70.6 L 26.6 67.8 L 31.5 64.6 L 36.0 61.0 L 40.2 57.1 L 44.0 52.9 L 47.3 48.5 L 50.2 43.9 L 52.7 39.1 L 54.8 34.2 L 56.4 29.3 L 57.6 24.3 L 58.3 19.3 L 58.6 14.3 L 58.5 9.4 L 57.9 4.6 L 57.0 0.0 Z"/>
      <path d="M -55.5 96.1 L -62.4 90.5 L -68.7 84.4 L -74.4 77.8 L -79.6 70.9 L -84.1 63.7 L -88.0 56.2 L -91.3 48.5 L -93.9 40.7 L -95.8 32.7 L -97.1 24.7 L -97.8 16.7 L -97.8 8.8 L -97.2 1.0 L -95.9 -6.7 L -94.1 -14.2 L -91.7 -21.4 L -88.8 -28.4 L -85.4 -35.0 L -81.5 -41.3 L -77.1 -47.1 L -72.4 -52.6 L -67.3 -57.6 L -61.9 -62.2 L -56.2 -66.3 L -50.2 -69.9 L -44.1 -73.0 L -37.8 -75.7 L -31.5 -77.9 L -31.5 -77.9 L -37.3 -74.6 L -42.8 -70.8 L -47.8 -66.5 L -52.5 -61.9 L -56.6 -56.9 L -60.3 -51.6 L -63.5 -46.2 L -66.2 -40.5 L -68.4 -34.6 L -70.1 -28.7 L -71.2 -22.8 L -71.9 -16.8 L -72.0 -10.9 L -71.7 -5.0 L -70.8 0.7 L -69.5 6.3 L -67.8 11.6 L -65.7 16.7 L -63.1 21.6 L -60.2 26.1 L -57.0 30.3 L -53.5 34.2 L -49.8 37.7 L -45.8 40.8 L -41.7 43.6 L -37.4 45.9 L -33.0 47.8 L -28.5 49.4 Z"/>
      <path d="M -55.5 -96.1 L -47.2 -99.2 L -38.7 -101.7 L -30.2 -103.4 L -21.6 -104.4 L -13.1 -104.7 L -4.7 -104.4 L 3.6 -103.3 L 11.7 -101.7 L 19.6 -99.4 L 27.2 -96.5 L 34.4 -93.1 L 41.3 -89.1 L 47.7 -84.6 L 53.8 -79.7 L 59.3 -74.4 L 64.4 -68.7 L 69.0 -62.7 L 73.0 -56.4 L 76.5 -49.9 L 79.4 -43.2 L 81.7 -36.4 L 83.5 -29.5 L 84.8 -22.5 L 85.5 -15.5 L 85.6 -8.6 L 85.3 -1.7 L 84.4 5.1 L 83.2 11.7 L 83.2 11.7 L 83.3 5.0 L 82.7 -1.6 L 81.5 -8.2 L 79.8 -14.5 L 77.6 -20.6 L 74.9 -26.4 L 71.7 -31.9 L 68.2 -37.1 L 64.2 -41.9 L 59.9 -46.3 L 55.3 -50.3 L 50.5 -53.9 L 45.4 -56.9 L 40.2 -59.6 L 34.8 -61.7 L 29.3 -63.3 L 23.8 -64.5 L 18.4 -65.2 L 12.9 -65.5 L 7.5 -65.2 L 2.3 -64.6 L -2.9 -63.5 L -7.8 -62.0 L -12.5 -60.1 L -16.9 -57.9 L -21.1 -55.3 L -24.9 -52.5 L -28.5 -49.4 Z"/>
  </g>
  <g transform="translate(256,256) scale(1.28)" fill="#b9c0cf" filter="url(#deboss)">
      <path d="M 111.0 0.0 L 109.5 8.8 L 107.4 17.3 L 104.6 25.5 L 101.2 33.5 L 97.2 41.0 L 92.7 48.1 L 87.7 54.8 L 82.2 61.0 L 76.3 66.6 L 70.0 71.8 L 63.4 76.3 L 56.5 80.3 L 49.4 83.7 L 42.2 86.4 L 34.8 88.6 L 27.3 90.1 L 19.8 91.1 L 12.4 91.4 L 5.0 91.2 L -2.3 90.4 L -9.4 89.0 L -16.3 87.1 L -22.9 84.7 L -29.3 81.8 L -35.4 78.5 L -41.2 74.7 L -46.6 70.6 L -51.7 66.2 L -51.7 66.2 L -46.0 69.6 L -39.9 72.4 L -33.7 74.7 L -27.4 76.4 L -21.0 77.5 L -14.6 78.1 L -8.2 78.1 L -1.9 77.6 L 4.2 76.6 L 10.2 75.1 L 15.9 73.1 L 21.4 70.6 L 26.6 67.8 L 31.5 64.6 L 36.0 61.0 L 40.2 57.1 L 44.0 52.9 L 47.3 48.5 L 50.2 43.9 L 52.7 39.1 L 54.8 34.2 L 56.4 29.3 L 57.6 24.3 L 58.3 19.3 L 58.6 14.3 L 58.5 9.4 L 57.9 4.6 L 57.0 0.0 Z"/>
      <path d="M -55.5 96.1 L -62.4 90.5 L -68.7 84.4 L -74.4 77.8 L -79.6 70.9 L -84.1 63.7 L -88.0 56.2 L -91.3 48.5 L -93.9 40.7 L -95.8 32.7 L -97.1 24.7 L -97.8 16.7 L -97.8 8.8 L -97.2 1.0 L -95.9 -6.7 L -94.1 -14.2 L -91.7 -21.4 L -88.8 -28.4 L -85.4 -35.0 L -81.5 -41.3 L -77.1 -47.1 L -72.4 -52.6 L -67.3 -57.6 L -61.9 -62.2 L -56.2 -66.3 L -50.2 -69.9 L -44.1 -73.0 L -37.8 -75.7 L -31.5 -77.9 L -31.5 -77.9 L -37.3 -74.6 L -42.8 -70.8 L -47.8 -66.5 L -52.5 -61.9 L -56.6 -56.9 L -60.3 -51.6 L -63.5 -46.2 L -66.2 -40.5 L -68.4 -34.6 L -70.1 -28.7 L -71.2 -22.8 L -71.9 -16.8 L -72.0 -10.9 L -71.7 -5.0 L -70.8 0.7 L -69.5 6.3 L -67.8 11.6 L -65.7 16.7 L -63.1 21.6 L -60.2 26.1 L -57.0 30.3 L -53.5 34.2 L -49.8 37.7 L -45.8 40.8 L -41.7 43.6 L -37.4 45.9 L -33.0 47.8 L -28.5 49.4 Z"/>
      <path d="M -55.5 -96.1 L -47.2 -99.2 L -38.7 -101.7 L -30.2 -103.4 L -21.6 -104.4 L -13.1 -104.7 L -4.7 -104.4 L 3.6 -103.3 L 11.7 -101.7 L 19.6 -99.4 L 27.2 -96.5 L 34.4 -93.1 L 41.3 -89.1 L 47.7 -84.6 L 53.8 -79.7 L 59.3 -74.4 L 64.4 -68.7 L 69.0 -62.7 L 73.0 -56.4 L 76.5 -49.9 L 79.4 -43.2 L 81.7 -36.4 L 83.5 -29.5 L 84.8 -22.5 L 85.5 -15.5 L 85.6 -8.6 L 85.3 -1.7 L 84.4 5.1 L 83.2 11.7 L 83.2 11.7 L 83.3 5.0 L 82.7 -1.6 L 81.5 -8.2 L 79.8 -14.5 L 77.6 -20.6 L 74.9 -26.4 L 71.7 -31.9 L 68.2 -37.1 L 64.2 -41.9 L 59.9 -46.3 L 55.3 -50.3 L 50.5 -53.9 L 45.4 -56.9 L 40.2 -59.6 L 34.8 -61.7 L 29.3 -63.3 L 23.8 -64.5 L 18.4 -65.2 L 12.9 -65.5 L 7.5 -65.2 L 2.3 -64.6 L -2.9 -63.5 L -7.8 -62.0 L -12.5 -60.1 L -16.9 -57.9 L -21.1 -55.3 L -24.9 -52.5 L -28.5 -49.4 Z"/>
    <circle r="20" fill="#ffffff"/>
  </g>
  <circle cx="256" cy="256" r="15.36" fill="#ffffff" opacity="0.55" filter="url(#glint)"/>
</svg>
